#!OML:ASF E:\acrobat2\Project_11_07_03\Capture day 1\Session 1\Acrobat.ASF
:FULLY-SPECIFIED
:DEGREES
775
root 14.118 5.20349 3.16499 93.0189 32.4868 -175.703
lowerback 2.89127 -0.13903 9.54012
upperback 0.299577 0.300144 2.97819
thorax -1.29296 0.167109 -2.2685
lowerneck -8.35484 0.24883 -2.20173
upperneck -1.96829 0.628477 3.50825
head 0.778662 0.430278 1.4903
rclavicle 0 1.2101e-014
rhumerus -45.2881 12.6959 -77.6343
rradius 23.7765
rwrist 14.4358
rhand 4.69617 -38.743
rfingers 7.12502
rthumb 30.0801 -66.3158
lclavicle 0 1.2101e-014
lhumerus -33.044 -1.59971 67.5407
lradius 16.3298
lwrist -6.91561
lhand 10.9578 -11.197
lfingers 7.12502
lthumb 36.0342 15.1111
rfemur 2.93893 1.90815 34.836
rtibia -0.47768
rfoot -8.89655 -24.2729
rtoes 46.951
lfemur 0.557614 -3.81724 8.11402
ltibia 1.40737
lfoot 9.9014 17.3357
ltoes 32.9745
776
root 14.1178 5.20352 3.16513 93.0132 32.4878 -175.7
lowerback 2.89821 -0.140687 9.54831
upperback 0.300665 0.29912 2.97744
thorax -1.29582 0.166528 -2.27377
lowerneck -8.34634 0.239136 -2.23502
upperneck -1.98224 0.619037 3.548
head 0.77326 0.426418 1.50842
rclavicle -7.95139e-016 8.7838e-014
rhumerus -45.2786 12.6607 -77.6144
rradius 23.765
rwrist 14.4654
rhand 4.67608 -38.6979
rfingers 7.12502
rthumb 30.061 -66.2741
lclavicle -7.95139e-016 8.7838e-014
lhumerus -33.042 -1.6002 67.5403
lradius 16.3248
lwrist -6.91373
lhand 10.9522 -11.2089
lfingers 7.12502
lthumb 36.0289 15.1005
rfemur 2.94994 1.92621 34.8372
rtibia -0.494279
rfoot -8.96325 -24.2648
rtoes 47.0376
lfemur 0.56466 -3.79051 8.11876
ltibia 1.41039
lfoot 9.78665 17.2377
ltoes 33.2198
777
root 14.1175 5.20354 3.1653 93.0061 32.4888 -175.699
lowerback 2.90454 -0.147261 9.5511
upperback 0.301111 0.291576 2.97799
thorax -1.29976 0.162758 -2.27447
lowerneck -8.32969 0.236124 -2.25625
upperneck -1.9899 0.616701 3.5745
head 0.768179 0.425581 1.52037
rclavicle -1.03368e-014 -1.41137e-014
rhumerus -45.273 12.6528 -77.6131
rradius 23.7539
rwrist 14.464
rhand 4.61909 -38.6432
rfingers 7.12502
rthumb 30.0066 -66.2292
lclavicle -1.03368e-014 -1.41137e-014
lhumerus -33.0397 -1.81382 67.6053
lradius 16.3415
lwrist -6.67776
lhand 10.9547 -11.1888
lfingers 7.12502
lthumb 36.0313 15.12
rfemur 2.96435 1.95067 34.8404
rtibia -0.507536
rfoot -9.02542 -24.2655
rtoes 47.1567
lfemur 0.573767 -3.77453 8.12138
ltibia 1.41172
lfoot 9.66283 17.2083
ltoes 33.5908
778
root 14.1172 5.20354 3.1655 92.9979 32.49 -175.699
lowerback 2.91105 -0.150554 9.55245
upperback 0.302707 0.288284 2.98061
thorax -1.30216 0.161201 -2.27238
lowerneck -8.3222 0.232467 -2.27025
upperneck -1.98739 0.612663 3.57789
head 0.767855 0.423544 1.52375
rclavicle -6.36111e-015 -2.32827e-014
rhumerus -45.2724 12.6634 -77.6199
rradius 23.7467
rwrist 14.432
rhand 4.72184 -38.5002
rfingers 7.12502
rthumb 30.1046 -66.0685
lclavicle -6.36111e-015 -2.32827e-014
lhumerus -33.0319 -2.01848 67.6724
lradius 16.3548
lwrist -6.45826
lhand 10.9488 -11.1685
lfingers 7.12502
lthumb 36.0257 15.1416
rfemur 2.97999 1.97177 34.8438
rtibia -0.520593
rfoot -9.09902 -24.2667
rtoes 47.3435
lfemur 0.58395 -3.76325 8.1229
ltibia 1.41337
lfoot 9.75461 16.9932
ltoes 33.0107
779
root 14.1171 5.20351 3.16575 92.9888 32.4914 -175.701
lowerback 2.91769 -0.156393 9.54795
upperback 0.303836 0.281596 2.98463
thorax -1.30552 0.157982 -2.2655
lowerneck -8.31976 0.236619 -2.26308
upperneck -1.97701 0.61682 3.56209
head 0.770536 0.425148 1.51761
rclavicle 2.46493e-014 -7.11898e-014
rhumerus -45.274 12.7004 -77.6399
rradius 23.7436
rwrist 14.3885
rhand 4.72186 -38.4412
rfingers 7.12502
rthumb 30.1046 -66.0095
lclavicle 2.46493e-014 -7.11898e-014
lhumerus -33.033 -2.17131 67.7203
lradius 16.3664
lwrist -6.2858
lhand 10.9316 -11.1574
lfingers 7.12502
lthumb 36.0094 15.1568
rfemur 2.99396 1.98223 34.8465
rtibia -0.531354
rfoot -9.16079 -24.274
rtoes 47.5428
lfemur 0.594627 -3.7531 8.12455
ltibia 1.41553
lfoot 9.4624 17.3451
ltoes 34.3532
780
root 14.117 5.20343 3.16603 92.98 32.4931 -175.703
lowerback 2.92498 -0.159282 9.54288
upperback 0.305728 0.278818 2.99013
thorax -1.30802 0.156757 -2.25692
lowerneck -8.32593 0.241077 -2.25748
upperneck -1.96417 0.621687 3.54599
head 0.775448 0.427231 1.51176
rclavicle 1.51076e-014 -6.4605e-016
rhumerus -45.274 12.7351 -77.6512
rradius 23.744
rwrist 14.3516
rhand 4.88925 -38.3304
rfingers 7.12502
rthumb 30.2643 -65.8695
lclavicle 1.51076e-014 -6.4605e-016
lhumerus -33.033 -2.21444 67.7381
lradius 16.3672
lwrist -6.23126
lhand 10.9069 -11.1635
lfingers 7.12502
lthumb 35.986 15.1564
rfemur 3.00426 1.97894 34.8483
rtibia -0.537023
rfoot -9.17832 -24.2904
rtoes 47.6703
lfemur 0.603315 -3.73977 8.12736
ltibia 1.4198
lfoot 9.48196 17.3432
ltoes 34.2822
781
root 14.1171 5.20329 3.16629 92.973 32.4946 -175.705
lowerback 2.93435 -0.141257 9.55358
upperback 0.307196 0.304161 2.99798
thorax -1.30899 0.169264 -2.2557
lowerneck -8.34172 0.2189 -2.30672
upperneck -1.95286 0.596676 3.5505
head 0.78262 0.415335 1.52133
rclavicle 3.18055e-014 -3.57812e-014
rhumerus -45.2819 12.7073 -77.6072
rradius 23.7476
rwrist 14.3461
rhand 4.8502 -38.3708
rfingers 7.12502
rthumb 30.2271 -65.9167
lclavicle 3.18055e-014 -3.57812e-014
lhumerus -33.0094 -2.14283 67.7464
lradius 16.3475
lwrist -6.34248
lhand 10.8831 -11.1853
lfingers 7.12502
lthumb 35.9634 15.1402
rfemur 3.00989 1.96622 34.8486
rtibia -0.540835
rfoot -9.15731 -24.3109
rtoes 47.7125
lfemur 0.608504 -3.72365 8.13097
ltibia 1.42594
lfoot 9.23319 17.6511
ltoes 35.3818
782
root 14.1171 5.20316 3.1665 92.9685 32.4959 -175.704
lowerback 2.94359 -0.126401 9.56472
upperback 0.309185 0.325282 3.00426
thorax -1.3098 0.17971 -2.2562
lowerneck -8.36017 0.196698 -2.35779
upperneck -1.94347 0.571998 3.5604
head 0.789669 0.40376 1.53298
rclavicle 3.49861e-014 1.34428e-014
rhumerus -45.2805 12.6593 -77.5483
rradius 23.7466
rwrist 14.3818
rhand 4.99134 -38.3026
rfingers 7.12502
rthumb 30.3617 -65.8238
lclavicle 3.49861e-014 1.34428e-014
lhumerus -32.9935 -1.96749 67.7184
lradius 16.3239
lwrist -6.55524
lhand 10.8637 -11.2103
lfingers 7.12502
lthumb 35.9451 15.1197
rfemur 3.01263 1.95974 34.8487
rtibia -0.54878
rfoot -9.14088 -24.3305
rtoes 47.7045
lfemur 0.612641 -3.71686 8.13341
ltibia 1.42777
lfoot 9.19838 17.6439
ltoes 35.4378
783
root 14.1172 5.20308 3.16661 92.9678 32.4964 -175.7
lowerback 2.95135 -0.112643 9.57805
upperback 0.31146 0.344599 3.00642
thorax -1.30961 0.18922 -2.26209
lowerneck -8.38015 0.17537 -2.40837
upperneck -1.93608 0.548591 3.58111
head 0.796362 0.393044 1.54805
rclavicle 3.97569e-015 1.12313e-013
rhumerus -45.2748 12.5889 -77.4821
rradius 23.7426
rwrist 14.4462
rhand 4.61047 -38.5494
rfingers 7.12502
rthumb 29.9984 -66.137
lclavicle 3.97569e-015 1.12313e-013
lhumerus -32.9805 -1.76511 67.6756
lradius 16.3036
lwrist -6.79861
lhand 10.8514 -11.2354
lfingers 7.12502
lthumb 35.9334 15.0974
rfemur 3.01218 1.95289 34.8485
rtibia -0.547481
rfoot -9.09764 -24.3421
rtoes 47.583
lfemur 0.615423 -3.72368 8.13343
ltibia 1.42248
lfoot 9.19701 17.5919
ltoes 35.312
784
root 14.1172 5.20306 3.16657 92.9718 32.4958 -175.693
lowerback 2.95553 -0.103854 9.58835
upperback 0.315163 0.356544 3.0045
thorax -1.30671 0.195203 -2.27023
lowerneck -8.40369 0.162613 -2.43724
upperneck -1.9289 0.534742 3.59963
head 0.803256 0.386989 1.55894
rclavicle -7.95139e-016 6.25178e-014
rhumerus -45.2663 12.5266 -77.4331
rradius 23.74
rwrist 14.5071
rhand 4.39344 -38.6721
rfingers 7.12502
rthumb 29.7913 -66.297
lclavicle -7.95139e-016 6.25178e-014
lhumerus -32.9707 -1.56142 67.6211
lradius 16.2893
lwrist -7.03597
lhand 10.8511 -11.2633
lfingers 7.12502
lthumb 35.9331 15.0696
rfemur 3.00726 1.94026 34.8462
rtibia -0.540231
rfoot -9.05483 -24.3406
rtoes 47.4441
lfemur 0.615562 -3.74168 8.13128
ltibia 1.4103
lfoot 9.47774 17.2396
ltoes 33.9813
785
root 14.1172 5.20308 3.16643 92.9792 32.4943 -175.685
lowerback 2.9553 -0.108192 9.58901
upperback 0.31884 0.350338 2.99907
thorax -1.30338 0.192313 -2.27597
lowerneck -8.42407 0.167891 -2.42491
upperneck -1.91958 0.540806 3.60431
head 0.809503 0.390282 1.55872
rclavicle -1.59028e-015 2.02263e-014
rhumerus -45.2591 12.5167 -77.4343
rradius 23.7423
rwrist 14.529
rhand 4.01631 -38.8988
rfingers 7.12502
rthumb 29.4313 -66.5875
lclavicle -1.59028e-015 2.02263e-014
lhumerus -32.9693 -1.56632 67.6147
lradius 16.3034
lwrist -7.02605
lhand 10.8782 -11.2638
lfingers 7.12502
lthumb 35.9588 15.0628
rfemur 2.99743 1.90918 34.84
rtibia -0.523726
rfoot -8.99926 -24.3281
rtoes 47.2994
lfemur 0.613668 -3.76451 8.12871
ltibia 1.39289
lfoot 9.5789 17.1552
ltoes 33.5339
